<?xml version="1.0" standalone="no"?><!DOCTYPE svg PUBLIC "-//W3C//DTD SVG 1.1//EN" "http://www.w3.org/Graphics/SVG/1.1/DTD/svg11.dtd"><svg t="1562738074428" class="icon" viewBox="0 0 1024 1024" version="1.1" xmlns="http://www.w3.org/2000/svg" p-id="15334" xmlns:xlink="http://www.w3.org/1999/xlink" width="200" height="200"><defs><style type="text/css"></style></defs><path d="M354.854 473.462h108.776v117.682h-108.776z" fill="#DFDFDF" p-id="15335"></path><path d="M737.858 308.57c2.1 5.108 3.39 10.5 3.676 16.134 0 1.098 0.048 2.244 0 3.388v356.866H283.232v-350.42a53.398 53.398 0 0 1 0-17.854c0.238-1.766 0.62-3.484 1.098-5.202a51.6 51.6 0 0 1 0.906-2.912h-100.72v447.466h656.83V308.57h-103.488z" fill="#71CCE0" p-id="15336"></path><path d="M536.274 233.388h-46.4v82.342h46.4v-82.342z m-14.32 68.022h-17.758v-53.702h17.758v53.702z m323.066-68.022h-153.29l1.186 8.186c0.522 3.606 0.786 7.324 0.786 11.05 0 3.588-0.244 7.13-0.746 10.81a80.09 80.09 0 0 1-1.888 9.248l-1.704 6.54 6.434 2.078a82.516 82.516 0 0 1 12.174 5.01 51.212 51.212 0 0 1 6.78 4.188c7.452 5.404 13.148 12.582 16.472 20.766l1.814 4.466h101.148v433.144H191.674V315.73h98.688l1.652-4.856c2.686-7.898 7.848-14.784 15.426-20.524 6.224-4.85 13.924-8.76 22.886-11.622l6.55-2.088-1.822-6.628a59.374 59.374 0 0 1-1.426-6.828c-1.216-6.962-1.436-14.328-0.648-21.894l0.824-7.902H179.266c-33.77 0-61.244 27.472-61.244 61.244v527.086c0 33.772 27.474 61.244 61.244 61.244h665.472c33.768 0 61.242-27.474 61.242-61.244V294.296c-0.002-33.584-27.346-60.908-60.96-60.908z m46.638 588.33c0 25.874-21.05 46.924-46.922 46.924H179.266c-25.874 0-46.924-21.05-46.924-46.924V294.632c0-25.874 21.05-46.924 46.924-46.924h138.96c-0.152 6.124 0.274 12.098 1.268 17.778 0.09 0.598 0.188 1.196 0.294 1.788-8.006 3.118-15.088 7.058-21.07 11.722-8.294 6.284-14.448 13.806-18.344 22.416h-103.02v461.786h671.152V301.41h-106.044c-4.446-8.808-11.048-16.52-19.302-22.504a65.192 65.192 0 0 0-8.678-5.352 93.592 93.592 0 0 0-8.09-3.656c0.298-1.538 0.548-3.038 0.754-4.516a93.488 93.488 0 0 0 0.748-17.674h137.128c25.716 0 46.638 20.9 46.638 46.588v527.422z" fill="#4A555F" p-id="15337"></path><path d="M529.114 264.416h-32.078v20.288h32.078v-20.288z m315.908 0h-144.97a87.966 87.966 0 0 1-2.052 10.072 89.44 89.44 0 0 1 13.222 5.442 58.15 58.15 0 0 1 7.734 4.774h146.26v495.2H162.462v-495.2h140.578c7.352-5.728 16.134-9.928 25.108-12.792a65.294 65.294 0 0 1-1.576-7.494H179.264c-16.66 0-30.216 13.556-30.216 30.216v527.088c0 16.66 13.556 30.216 30.216 30.216h665.47c16.66 0 30.216-13.558 30.216-30.216V294.298c0.002-16.468-13.412-29.882-29.928-29.882z" fill="#DFDFDF" p-id="15338"></path><path d="M596.62 868.626h-161.83l-44.632 107.072h251.094l-44.632-107.072z m-152.282 14.32h142.736l32.694 78.432H411.644l32.694-78.432z" fill="#4A555F" p-id="15339"></path><path d="M575.938 899.656h-120.464l-18.764 45.016h157.992z" fill="#DFDFDF" p-id="15340"></path><path d="M290.95 961.378V1024H740.46v-62.622H290.95zM726.14 1009.68H305.27v-33.98H726.14v33.98z" fill="#4A555F" p-id="15341"></path><path d="M145.538 1009.68h740.334V1024H145.538zM512.008 786.148c-17.462 0-31.672 14.208-31.672 31.67 0 17.462 14.208 31.67 31.672 31.67 17.462 0 31.67-14.208 31.67-31.67 0-17.46-14.208-31.67-31.67-31.67z m0 49.022c-9.568 0-17.35-7.782-17.35-17.35 0-9.568 7.782-17.35 17.35-17.35 9.568 0 17.35 7.782 17.35 17.35 0 9.568-7.782 17.35-17.35 17.35zM714.496 273.556a91.81 91.81 0 0 0-8.124-3.668 92.08 92.08 0 0 0 1.628-17.246c0-51.052-41.34-92.63-92.298-93.032-10.042-15.15-27.452-23.956-45.964-22.806-26.808 1.698-47.81 24.716-47.81 52.398v123.204c0 34.086 27.732 61.818 61.818 61.818H703.6c10.904 0 21.1-3.456 28.71-9.734 8.448-6.964 13.722-16.52 15.67-28.398 4.108-25.072-9.348-50.204-33.484-62.536z m19.35 60.22c-1.368 8.356-4.95 14.97-10.644 19.666-5.054 4.168-12.016 6.46-19.602 6.46h-119.852c-26.19 0-47.498-21.308-47.498-47.498V189.202c0-20.146 15.108-36.884 34.398-38.106a36.84 36.84 0 0 1 34.782 19.19l2.144 3.936 4.478-0.208c0.944-0.044 1.928-0.088 2.914-0.088 43.402 0 78.714 35.312 78.714 78.714 0 6.768-0.882 13.502-2.62 20.016l-1.766 6.622 6.538 2.056a78.248 78.248 0 0 1 12.146 4.972c18.572 9.49 28.968 28.566 25.868 47.47z" fill="#4A555F" p-id="15342"></path><path d="M700.37 301.18a61.4 61.4 0 0 0-9.546-3.904l-21.796-6.85 5.89-22.072a60.952 60.952 0 0 0 2.056-15.71c0-34.19-27.816-62.008-62.006-62.008-0.734 0-1.466 0.04-2.192 0.072l-14.888 0.66-7.128-13.09a20.144 20.144 0 0 0-19.056-10.508c-10.334 0.658-18.744 10.272-18.744 21.434v123.204c0 16.976 13.812 30.788 30.79 30.788H703.6c3.664 0 6.936-0.962 8.972-2.64 1.606-1.324 3.85-3.748 4.79-9.48 1.918-11.706-4.91-23.72-16.992-29.896z" fill="#FFD452" p-id="15343"></path><path d="M453.05 136.694c-16.196 0-31.16 7.552-40.8 20.394a136.622 136.622 0 0 0-1.58-0.012c-47.08 0.264-86.566 35.396-91.852 81.722-1.116 9.79-0.804 19.35 0.922 28.51-22.378 8.736-37.312 23.588-42.348 42.308-4.744 17.644-1.828 41.594 15.374 55.314 7.504 5.99 17.478 9.29 28.08 9.29h121.512c34.086 0 61.818-27.732 61.818-61.818V187.818c-0.002-28.188-22.936-51.124-51.126-51.124z m36.804 175.712c0 26.188-21.308 47.498-47.496 47.498h-121.512c-7.368 0-14.166-2.188-19.148-6.162-12.136-9.682-14.006-27.27-10.474-40.404 5.64-20.972 26.916-30.676 39.096-34.592l6.49-2.088-1.764-6.582c-2.504-9.348-3.174-19.326-2-29.652 4.466-39.126 37.87-68.802 77.664-69.024 1.632 0 3.218 0.044 4.804 0.134l4.204 0.236 2.246-3.56c6.802-10.766 18.42-17.192 31.086-17.192 20.294 0 36.802 16.51 36.802 36.804v124.584z" fill="#4A555F" p-id="15344"></path><path d="M453.05 167.722c-6.9 0-13.242 3.516-16.962 9.406l-7.494 11.864-14.01-0.782a69.46 69.46 0 0 0-3.744-0.104c-30.866 0.17-57.748 23.984-61.198 54.208-0.938 8.236-0.42 16.124 1.54 23.44l5.874 21.942-21.622 6.954c-8.948 2.878-24.494 9.696-28.078 23.024-2.112 7.862-1.156 18.288 4.76 23.008 2.002 1.598 5.184 2.514 8.728 2.514h121.512c16.978 0 30.79-13.812 30.79-30.788V187.82c0-11.082-9.014-20.098-20.096-20.098z" fill="#F58E6F" p-id="15345"></path><path d="M351.328 261.378c-8.56 0-17.056 1.24-25.246 3.69l4.098 13.72a73.91 73.91 0 0 1 21.15-3.088c40.612 0 73.654 33.062 73.654 73.702h14.32c-0.002-48.538-39.468-88.024-87.976-88.024z" fill="#4A555F" p-id="15346"></path><path d="M455.162 251.918c0 22.848-18.59 41.44-41.44 41.44v14.32c30.746 0 55.76-25.014 55.76-55.76h-14.32zM580.226 261.378V143.868h-14.32v131.83h47.946v40.288h14.32v-54.608zM646.46 175.966h14.32v64.012h-14.32zM668.176 367.696l0.02-39.268 14.32 0.006-0.02 39.268z" fill="#4A555F" p-id="15347"></path><path d="M621.012 308.826c-10.834 0-19.646 8.812-19.646 19.646 0 10.832 8.812 19.644 19.646 19.644 10.832 0 19.644-8.812 19.644-19.644 0-10.832-8.812-19.646-19.644-19.646z m0 24.97a5.332 5.332 0 0 1-5.326-5.324 5.334 5.334 0 0 1 5.326-5.326 5.332 5.332 0 0 1 5.324 5.326 5.33 5.33 0 0 1-5.324 5.324zM653.636 232.818c-10.832 0-19.644 8.812-19.644 19.644s8.812 19.644 19.644 19.644c10.834 0 19.646-8.812 19.646-19.644s-8.812-19.644-19.646-19.644z m0 24.968c-2.934 0-5.324-2.39-5.324-5.324s2.39-5.324 5.324-5.324c2.936 0 5.326 2.39 5.326 5.324s-2.388 5.324-5.326 5.324zM611.706 197.078c-10.832 0-19.644 8.812-19.644 19.644 0 10.834 8.812 19.646 19.644 19.646s19.644-8.812 19.644-19.646c0-10.83-8.814-19.644-19.644-19.644z m0 24.97a5.332 5.332 0 0 1-5.324-5.326 5.332 5.332 0 0 1 5.324-5.324 5.332 5.332 0 0 1 5.324 5.324 5.332 5.332 0 0 1-5.324 5.326zM573.066 287.224c-10.832 0-19.644 8.812-19.644 19.646 0 10.832 8.812 19.644 19.644 19.644 10.832 0 19.644-8.812 19.644-19.644 0-10.832-8.814-19.646-19.644-19.646z m0 24.97a5.33 5.33 0 0 1-5.324-5.324 5.332 5.332 0 0 1 5.324-5.326 5.332 5.332 0 0 1 5.324 5.326 5.33 5.33 0 0 1-5.324 5.324zM675.356 296.3c-10.834 0-19.646 8.812-19.646 19.644 0 10.834 8.812 19.646 19.646 19.646 10.832 0 19.644-8.812 19.644-19.646 0-10.83-8.814-19.644-19.644-19.644z m0 24.97a5.334 5.334 0 0 1-5.326-5.326 5.332 5.332 0 0 1 5.326-5.324 5.332 5.332 0 0 1 5.324 5.324 5.332 5.332 0 0 1-5.324 5.326z" fill="#4A555F" p-id="15348"></path><path d="M604.546 166.844h14.32v37.396h-14.32zM565.906 319.342h14.32v46.676h-14.32zM412.872 196.478l-14.32-0.024c-0.042 24.01 19.458 43.584 43.468 43.63l0.028-14.32c-16.116-0.034-29.204-13.17-29.176-29.286zM734.392 398.13v279.668H290.374V398.13h-14.32V692.12h472.658V398.13z" fill="#4A555F" p-id="15349"></path><path d="M323.826 442.434v69.458h170.832v-69.458h-170.832z m156.512 55.138h-142.19v-40.818h142.19v40.818z" fill="#4A555F" p-id="15350"></path><path d="M323.826 497.572v69.46h170.832v-69.46h-170.832z m156.512 55.14h-142.19v-40.82h142.19v40.82z" fill="#4A555F" p-id="15351"></path><path d="M323.826 552.712v69.46h170.832v-69.46h-170.832z m156.512 55.14h-142.19v-40.82h142.19v40.82z" fill="#4A555F" p-id="15352"></path><path d="M323.826 442.432v179.738h170.832v-179.738h-170.832z m156.512 165.418h-142.19v-151.096h142.19v151.096zM593.8 484.324h14.32v-14.32h-14.32v14.32z m-28.64 0h14.32v-14.32h-14.32v14.32z m-28.642 0h14.32v-14.32h-14.32v14.32z m114.564 0h14.32v-14.32h-14.32v14.32z m28.642-14.32v14.32h14.32v-14.32h-14.32z m-57.282 14.32h14.32v-14.32h-14.32v14.32zM536.518 546.326h14.32v-14.32h-14.32v14.32z m57.282 0h14.32v-14.32h-14.32v14.32z m-28.64 0h14.32v-14.32h-14.32v14.32z m57.282 0h14.32v-14.32h-14.32v14.32z m28.64 0h14.32v-14.32h-14.32v14.32z m28.642-14.322v14.32h14.32v-14.32h-14.32zM593.8 608.328h14.32v-14.32h-14.32v14.32z m-57.282 0h14.32v-14.32h-14.32v14.32z m28.642 0h14.32v-14.32h-14.32v14.32z m57.282 0h14.32v-14.32h-14.32v14.32z m57.282-14.322v14.32h14.32v-14.32h-14.32z m-28.642 14.322h14.32v-14.32h-14.32v14.32zM283.23 301.41v6.458l-4.754-1.662a60.676 60.676 0 0 0-1.048 3.366c-0.3 1.09-0.56 2.142-0.774 3.166h-0.582v3.946l14.256 0.964c0.18-1.314 0.474-2.706 0.888-4.198 0.246-0.866 0.492-1.694 0.78-2.516l3.328-9.524h-12.094zM504.864 0h14.32v90.486h-14.32zM282.824 131.62l10.124-10.126 30.328 30.33-10.124 10.124zM238.4 87.192l10.124-10.124 30.33 30.328-10.124 10.124zM700.766 151.82l30.328-30.326 10.124 10.124-30.326 30.328zM745.184 107.396l30.328-30.326 10.124 10.124-30.328 30.326z" fill="#4A555F" p-id="15353"></path></svg>