<?xml version="1.0" standalone="no"?><!DOCTYPE svg PUBLIC "-//W3C//DTD SVG 1.1//EN" "http://www.w3.org/Graphics/SVG/1.1/DTD/svg11.dtd"><svg t="1562738191429" class="icon" viewBox="0 0 1024 1024" version="1.1" xmlns="http://www.w3.org/2000/svg" p-id="17392" xmlns:xlink="http://www.w3.org/1999/xlink" width="200" height="200"><defs><style type="text/css"></style></defs><path d="M416 892a8 8 0 0 1-8-8v-56a8 8 0 0 1 16 0v56a8 8 0 0 1-8 8zM608 892a8 8 0 0 1-8-8v-56a8 8 0 0 1 16 0v56a8 8 0 0 1-8 8zM672 988H352c-13.232 0-24-10.768-24-24v-32c0-13.232 10.768-24 24-24h320c13.232 0 24 10.768 24 24v32c0 13.232-10.768 24-24 24z m-320-64c-4.4 0-8 3.6-8 8v32c0 4.4 3.6 8 8 8h320c4.4 0 8-3.6 8-8v-32c0-4.4-3.6-8-8-8H352zM992 724H32a8 8 0 0 1 0-16h960a8 8 0 0 1 0 16zM224 212H32a8 8 0 0 1 0-16h192a8 8 0 0 1 0 16zM992 212H800a8 8 0 0 1 0-16h192a8 8 0 0 1 0 16zM56 912h-16a8 8 0 0 1 0-16h16a8 8 0 0 1 0 16zM256 912H88a8 8 0 0 1 0-16H256a8 8 0 0 1 0 16zM984 912h-16a8 8 0 0 1 0-16h16a8 8 0 0 1 0 16zM936 912H768a8 8 0 0 1 0-16h168a8 8 0 0 1 0 16z" fill="#263238" p-id="17393"></path><path d="M912 804H112a88.112 88.112 0 0 1-88-88v-512c0-48.512 39.488-88 88-88h176a8 8 0 0 1 0 16H112a72.08 72.08 0 0 0-72 72v512c0 39.696 32.304 72 72 72h800c39.696 0 72-32.304 72-72v-512c0-39.696-32.304-72-72-72H736a8 8 0 0 1 0-16h176c48.512 0 88 39.488 88 88v512c0 48.512-39.488 88-88 88z" fill="#263238" p-id="17394"></path><path d="M944 340a8 8 0 0 1-8-8v-72H864a8 8 0 0 1 0-16h80a8 8 0 0 1 8 8v80a8 8 0 0 1-8 8z" fill="#263238" p-id="17395"></path><path d="M512 423.664c0 52.176-39.76 98.064-91.888 100.24a95.92 95.92 0 0 1-98.864-81.168A95.92 95.92 0 0 1 240 348c0-32.256 15.952-60.72 40.352-78.128-14.72-11.728-24.352-29.584-24.352-49.872a64 64 0 0 1 64-64v-11.968c0-52.56 40.512-98.4 93.04-99.984A96 96 0 0 1 512 140v283.664z" fill="#FFD740" p-id="17396"></path><path d="M384 452h-48a104.128 104.128 0 0 1-104-104 8 8 0 0 1 16 0c0 48.512 39.488 88 88 88h44.688l43.312-43.312V316a8 8 0 0 1 16 0v80c0 2.128-0.848 4.16-2.336 5.664l-48 48a8.064 8.064 0 0 1-5.664 2.336z" fill="#263238" p-id="17397"></path><path d="M416 532a103.824 103.824 0 0 1-101.632-82.368A103.296 103.296 0 0 1 232 348a104.16 104.16 0 0 1 36-78.576 71.136 71.136 0 0 1-20-49.424 72.128 72.128 0 0 1 64-71.568v-4.4c0-57.872 45.216-106.32 100.816-107.984a103.312 103.312 0 0 1 75.616 29.296A103.248 103.248 0 0 1 520 140v120a8 8 0 0 1-8 8h-48a8 8 0 0 1-8-8v-64a8 8 0 0 1 16 0v56h32v-112a87.296 87.296 0 0 0-26.72-63.168 87.168 87.168 0 0 0-64-24.784c-47.008 1.408-85.28 42.672-85.28 91.984v11.968a8 8 0 0 1-8 8c-30.88 0-56 25.12-56 56 0 16.928 7.76 32.832 21.328 43.616a8.032 8.032 0 0 1-0.352 12.784A88.176 88.176 0 0 0 248 348a87.408 87.408 0 0 0 74.464 86.848 7.984 7.984 0 0 1 6.688 6.688 87.392 87.392 0 0 0 90.624 74.368c46.432-1.92 84.224-43.312 84.224-92.24V324a8 8 0 0 1 16 0v99.664c0 57.392-44.656 105.936-99.568 108.24a102.4 102.4 0 0 1-4.432 0.096z" fill="#263238" p-id="17398"></path><path d="M373.04 332.048a8 8 0 0 1-8-8v-80c0-2.128 0.848-4.16 2.336-5.664l37.664-37.664V156.048a8 8 0 0 1 16 0v48c0 2.128-0.848 4.16-2.336 5.664l-37.664 37.664v76.688a8 8 0 0 1-8 7.984z" fill="#263238" p-id="17399"></path><path d="M512 423.664c0 52.176 39.76 98.064 91.888 100.24a95.92 95.92 0 0 0 98.864-81.168A95.92 95.92 0 0 0 784 348a95.776 95.776 0 0 0-40.352-78.128c14.72-11.728 24.352-29.584 24.352-49.872a64 64 0 0 0-64-64v-11.968c0-52.56-40.512-98.4-93.04-99.984A96 96 0 0 0 512 140v283.664z" fill="#FFD740" p-id="17400"></path><path d="M688 452h-48a8.064 8.064 0 0 1-5.664-2.336l-48-48a8.064 8.064 0 0 1-2.336-5.664v-80a8 8 0 0 1 16 0v76.688l43.312 43.312H688c48.512 0 88-39.488 88-88a8 8 0 0 1 16 0c0 57.344-46.656 104-104 104z" fill="#263238" p-id="17401"></path><path d="M608 532c-1.488 0-2.96-0.032-4.432-0.096-54.912-2.304-99.568-50.848-99.568-108.24V324a8 8 0 0 1 16 0v99.664c0 48.928 37.776 90.32 84.224 92.24a87.488 87.488 0 0 0 90.624-74.368 7.984 7.984 0 0 1 6.688-6.688A87.408 87.408 0 0 0 776 348c0-28.32-13.824-55.072-36.992-71.616a8.016 8.016 0 0 1-0.352-12.784 55.568 55.568 0 0 0 21.328-43.616c0-30.88-25.12-56-56-56a8 8 0 0 1-8-8v-11.952c0-49.312-38.272-90.576-85.28-91.984a86.736 86.736 0 0 0-64 24.784A87.36 87.36 0 0 0 520 140v112h32v-56a8 8 0 0 1 16 0v64a8 8 0 0 1-8 8h-48a8 8 0 0 1-8-8v-120a103.2 103.2 0 0 1 31.584-74.656A102.96 102.96 0 0 1 611.2 36.048c55.584 1.664 100.8 50.112 100.8 107.984v4.4c35.952 4 64 34.56 64 71.568a71.136 71.136 0 0 1-20 49.424 104.16 104.16 0 0 1 36 78.576 103.328 103.328 0 0 1-82.368 101.632A103.872 103.872 0 0 1 608 532z" fill="#263238" p-id="17402"></path><path d="M650.96 332.048a8 8 0 0 1-8-8V247.36l-37.664-37.664a8 8 0 0 1-2.336-5.664v-48a8 8 0 0 1 16 0v44.688l37.664 37.664a8 8 0 0 1 2.336 5.664v80a8 8 0 0 1-8 8z" fill="#263238" p-id="17403"></path><path d="M256.128 652h-128a16 16 0 0 1-16-16v-80a16 16 0 0 1 16-16h128a16 16 0 0 1 16 16v80a16 16 0 0 1-16 16z" fill="#40C4FF" p-id="17404"></path><path d="M256.128 660h-128c-13.232 0-24-10.768-24-24v-80c0-13.232 10.768-24 24-24h128c13.232 0 24 10.768 24 24v80c0 13.232-10.768 24-24 24z m-128-112c-4.4 0-8 3.6-8 8v80c0 4.4 3.6 8 8 8h128c4.4 0 8-3.6 8-8v-80c0-4.4-3.6-8-8-8h-128zM944 548H784a8 8 0 0 1 0-16h160a8 8 0 0 1 0 16zM944 604H784a8 8 0 0 1 0-16h160a8 8 0 0 1 0 16z" fill="#263238" p-id="17405"></path><path d="M944 660H784a8 8 0 0 1 0-16h160a8 8 0 0 1 0 16z" fill="#263238" p-id="17406"></path></svg>