<?xml version="1.0" standalone="no"?><!DOCTYPE svg PUBLIC "-//W3C//DTD SVG 1.1//EN" "http://www.w3.org/Graphics/SVG/1.1/DTD/svg11.dtd"><svg t="1562738164038" class="icon" viewBox="0 0 1024 1024" version="1.1" xmlns="http://www.w3.org/2000/svg" p-id="17245" xmlns:xlink="http://www.w3.org/1999/xlink" width="200" height="200"><defs><style type="text/css"></style></defs><path d="M951.686 535.982c0 242.702-196.812 439.67-439.686 439.67-242.874 0-439.686-196.968-439.686-439.67 0-242.708 196.812-439.686 439.686-439.686 242.874 0 439.686 196.978 439.686 439.686z" fill="#D7E9FF" p-id="17246"></path><path d="M855.754 535.982c0 189.678-153.828 343.74-343.754 343.74-189.928 0-343.756-154.062-343.756-343.74 0-189.692 153.828-343.754 343.756-343.754 189.926 0 343.754 154.062 343.754 343.754z" fill="#FFFFFF" p-id="17247"></path><path d="M647.902 927.704l-31.976 31.976H408.074l-31.978-31.976v-111.92h271.806z" fill="#94C1FF" p-id="17248"></path><path d="M408.074 815.784h-31.978v111.92l31.978 31.976h31.976l-31.976-31.976z" fill="#D7E9FF" p-id="17249"></path><path d="M615.926 815.784h31.976v111.92l-31.976 31.976h-31.978l31.978-31.976z" fill="#5C9EFF" p-id="17250"></path><path d="M775.81 535.982c0-145.708-118.118-263.82-263.81-263.82s-263.812 118.112-263.812 263.82c0 95.9 51.354 179.624 127.908 225.792v54.008h271.806v-54.008c76.556-46.168 127.908-129.892 127.908-225.792z" fill="#D7E9FF" p-id="17251"></path><path d="M512 272.164c5.402 0 10.696 0.446 16.004 0.804-138.214 8.306-247.838 122.702-247.838 263.016 0 142.304 95.93 225.792 95.93 225.792-76.554-46.17-127.908-129.892-127.908-225.792 0-145.71 118.118-263.82 263.812-263.82z" fill="#FFFFFF" p-id="17252"></path><path d="M512.016 272.164c-5.402 0-10.696 0.446-16.004 0.804 138.214 8.306 247.838 122.702 247.838 263.016 0 142.304-95.932 225.792-95.932 225.792 76.554-46.17 127.908-129.892 127.908-225.792 0-145.71-118.118-263.82-263.81-263.82z" fill="#FFFFFF" p-id="17253"></path><path d="M440.05 959.68s15.988 31.978 71.95 31.978c55.958 0 71.948-31.978 71.948-31.978h-143.898z" fill="#94C1FF" p-id="17254"></path><path d="M472.028 959.68h-31.976s15.988 31.978 71.95 31.978c5.776 0 11.04-0.406 15.988-1.032-43.002-5.308-55.962-30.946-55.962-30.946z" fill="#D7E9FF" p-id="17255"></path><path d="M551.97 959.68h31.976s-15.988 31.978-71.948 31.978c-5.778 0-11.04-0.406-15.99-1.032 43.004-5.308 55.962-30.946 55.962-30.946z" fill="#5C9EFF" p-id="17256"></path><path d="M376.096 799.794h271.806v15.988H376.096z" fill="#94C1FF" p-id="17257"></path><path d="M639.908 464.034a31.862 31.862 0 0 1 31.976 31.978 31.862 31.862 0 0 1-31.976 31.976 23.948 23.948 0 0 1 23.982 23.982c0 9.916-5.918 18.238-14.396 22.062 11.196 21.268 7.84 47.81-9.898 65.562-13.272 13.1-31.18 18.376-48.292 15.662h-0.156c-1.282 7.666-4.964 15.036-10.882 20.938a39.92 39.92 0 0 1-56.586 0c-7.526-7.666-11.522-17.582-11.678-27.652V400.08c0-17.746 14.224-31.978 31.976-31.978s31.976 14.232 31.976 31.978c0 4.472-0.952 8.634-2.56 12.466 7.042-6.23 16.316-9.906 26.542-9.906 22.218 0 39.972 17.746 39.972 39.97 0 8.15-2.404 15.826-6.714 22.062 2.234-0.318 4.482-0.638 6.714-0.638z" fill="#94C1FF" p-id="17258"></path><path d="M512 575.954v72.59c-0.156 10.07-3.998 19.986-11.68 27.652a39.92 39.92 0 0 1-56.584 0c-5.918-5.902-9.604-13.272-10.884-20.938h-0.156a55.64 55.64 0 0 1-48.124-15.662c-17.752-17.752-21.11-44.294-10.07-65.562-8.478-3.824-14.396-12.146-14.396-22.062a23.948 23.948 0 0 1 23.984-23.982 31.866 31.866 0 0 1-31.978-31.976 31.864 31.864 0 0 1 31.978-31.978c2.404 0 4.638 0.32 6.714 0.64-4.31-6.238-6.714-13.912-6.714-22.062 0-22.226 17.91-39.97 39.972-39.97 10.226 0 19.502 3.676 26.542 9.906-1.608-3.832-2.56-7.994-2.56-12.466 0-17.746 14.224-31.978 31.978-31.978S512 382.334 512 400.08v175.874z" fill="#94C1FF" p-id="17259"></path><path d="M466.594 412.546c-1.608-3.832-2.56-7.994-2.56-12.466 0-14.966 10.166-27.324 23.984-30.862-2.56-0.656-5.216-1.116-7.994-1.116a31.866 31.866 0 0 0-31.978 31.978c0 1.202 0.234 2.326 0.36 3.482 6.884 1.42 13.13 4.512 18.188 8.984zM459.724 676.196c-5.918-5.902-9.604-13.272-10.882-20.938h-0.156a55.636 55.636 0 0 1-48.122-15.662c-17.752-17.752-21.11-44.294-10.072-65.562-8.478-3.824-14.396-12.146-14.396-22.062a23.95 23.95 0 0 1 23.984-23.982 31.866 31.866 0 0 1-31.978-31.976 31.864 31.864 0 0 1 31.978-31.978c2.406 0 4.638 0.32 6.714 0.64-4.308-6.238-6.714-13.912-6.714-22.062a39.872 39.872 0 0 1 31.93-39.166 41.4 41.4 0 0 0-7.948-0.804c-22.062 0-39.972 17.746-39.972 39.97 0 8.15 2.404 15.826 6.714 22.062-2.076-0.32-4.31-0.64-6.714-0.64a31.866 31.866 0 0 0-31.978 31.978 31.864 31.864 0 0 0 31.978 31.976 23.95 23.95 0 0 0-23.984 23.982c0 9.916 5.918 18.238 14.396 22.062-11.04 21.268-7.682 47.81 10.07 65.562a55.64 55.64 0 0 0 48.124 15.662h0.156c1.28 7.666 4.966 15.036 10.884 20.938 9.882 9.898 23.576 13.506 36.286 10.914a39.756 39.756 0 0 1-20.298-10.914z" fill="#D7E9FF" p-id="17260"></path><path d="M557.404 412.546c1.61-3.832 2.56-7.994 2.56-12.466 0-14.966-10.164-27.324-23.982-30.862 2.56-0.656 5.214-1.116 7.994-1.116a31.864 31.864 0 0 1 31.976 31.978c0 1.202-0.232 2.326-0.358 3.482-6.886 1.42-13.132 4.512-18.19 8.984zM564.276 676.196c5.918-5.902 9.602-13.272 10.882-20.938h0.156a55.638 55.638 0 0 0 48.122-15.662c17.754-17.752 21.11-44.294 10.07-65.562 8.478-3.824 14.396-12.146 14.396-22.062a23.948 23.948 0 0 0-23.982-23.982 31.864 31.864 0 0 0 31.976-31.976 31.864 31.864 0 0 0-31.976-31.978c-2.404 0-4.636 0.32-6.714 0.64 4.31-6.238 6.714-13.912 6.714-22.062a39.872 39.872 0 0 0-31.93-39.166 41.378 41.378 0 0 1 7.946-0.804c22.062 0 39.972 17.746 39.972 39.97 0 8.15-2.404 15.826-6.714 22.062 2.078-0.32 4.31-0.64 6.714-0.64a31.862 31.862 0 0 1 31.976 31.978 31.862 31.862 0 0 1-31.976 31.976 23.948 23.948 0 0 1 23.982 23.982c0 9.916-5.918 18.238-14.396 22.062 11.04 21.268 7.684 47.81-10.07 65.562a55.636 55.636 0 0 1-48.122 15.662h-0.156c-1.282 7.666-4.964 15.036-10.882 20.938-9.884 9.898-23.578 13.506-36.288 10.914a39.76 39.76 0 0 0 20.3-10.914z" fill="#D7E9FF" p-id="17261"></path><path d="M472.028 695.948c-12.802 0-24.856-5.014-33.944-14.1-6.98-6.98-11.524-15.722-13.116-25.264-3.138-15.238 1.75-31.292 13.116-42.624a7.988 7.988 0 0 1 11.304 0 7.986 7.986 0 0 1 0 11.302c-7.558 7.542-10.804 18.144-8.696 28.386 1.092 6.542 4.074 12.29 8.696 16.894 12.148 12.148 33.132 12.148 45.28 0 5.886-5.872 9.212-13.74 9.336-22.124 0.078-4.418 3.716-7.572 8.12-7.87a8.004 8.004 0 0 1 7.87 8.12c-0.204 12.57-5.168 24.342-14.022 33.18-9.088 9.086-21.14 14.1-33.944 14.1zM424.062 490.578c-16.144 0-31.088-8.042-39.94-21.508-5.216-7.55-8.026-16.754-8.026-26.458 0-26.45 21.516-47.964 47.966-47.964 11.85 0 23.154 4.23 31.836 11.914a7.986 7.986 0 0 1 0.688 11.288c-2.936 3.294-7.994 3.592-11.274 0.688-5.762-5.098-13.302-7.9-21.25-7.9-17.628 0-31.978 14.342-31.978 31.976 0 6.45 1.828 12.5 5.292 17.52 5.996 9.11 15.926 14.458 26.684 14.458a7.99 7.99 0 0 1 7.994 7.996 7.986 7.986 0 0 1-7.992 7.99zM374.504 582.028a8.196 8.196 0 0 1-3.294-0.704c-11.772-5.34-19.096-16.58-19.096-29.354 0-17.642 14.35-31.976 31.978-31.976 4.418 0 7.994 3.576 7.994 7.994s-3.576 7.994-7.994 7.994c-8.822 0-15.99 7.182-15.99 15.988 0 6.402 3.716 12.086 9.698 14.772a8.008 8.008 0 0 1 3.996 10.586 8.008 8.008 0 0 1-7.292 4.7z" fill="#116FFF" p-id="17262"></path><path d="M384.09 535.982c-22.046 0-39.972-17.932-39.972-39.97s17.924-39.972 39.972-39.972c2.842 0 5.48 0.358 7.932 0.734a8 8 0 0 1 6.682 9.12c-0.672 4.364-4.792 7.338-9.118 6.682-1.702-0.264-3.528-0.546-5.496-0.546-13.226 0-23.984 10.758-23.984 23.984 0 13.224 10.758 23.982 23.984 23.982 4.418 0 7.994 3.576 7.994 7.994s-3.574 7.992-7.994 7.992zM480.022 440.05c-16.176 0-30.62-9.586-36.802-24.428-2.092-5.02-3.17-10.25-3.17-15.542 0-22.04 17.924-39.972 39.972-39.972 22.046 0 39.972 17.932 39.972 39.972a7.99 7.99 0 0 1-7.994 7.994 7.99 7.99 0 0 1-7.996-7.994c0-13.224-10.758-23.984-23.982-23.984-13.226 0-23.984 10.758-23.984 23.984 0 3.154 0.656 6.308 1.936 9.376 3.7 8.884 12.35 14.606 22.046 14.606a7.99 7.99 0 0 1 7.994 7.994 7.984 7.984 0 0 1-7.992 7.994zM424.016 663.938c-16.722 0.016-33.054-6.65-45.094-18.69-19.844-19.83-24.466-49.932-11.506-74.9a62.138 62.138 0 0 1 11.522-15.722c24.858-24.886 65.454-24.808 90.436 0.156a7.988 7.988 0 0 1 0 11.304 7.988 7.988 0 0 1-11.304 0c-18.752-18.736-49.184-18.798-67.842-0.156a47.072 47.072 0 0 0-8.62 11.758c-9.742 18.784-6.276 41.362 8.62 56.258 10.79 10.79 26.092 15.832 41.206 13.426 4.262-0.748 8.448 2.25 9.166 6.622a8 8 0 0 1-6.636 9.15 63.192 63.192 0 0 1-9.948 0.794zM551.97 695.948c-12.802 0-24.858-5.014-33.946-14.1-8.868-9.026-13.834-20.796-14.02-33.18a8 8 0 0 1 7.87-8.12c4.528 0.204 8.056 3.452 8.12 7.87 0.124 8.26 3.464 16.144 9.398 22.188 12.024 12.024 33.07 12.086 45.218-0.062 4.622-4.606 7.604-10.352 8.65-16.614 2.154-10.524-1.094-21.124-8.65-28.668-3.124-3.122-3.124-8.18 0-11.302s8.182-3.124 11.304 0c11.368 11.334 16.254 27.386 13.068 42.906-1.544 9.26-6.09 18.002-13.068 24.982-9.086 9.086-21.138 14.1-33.944 14.1zM599.936 490.578a7.988 7.988 0 0 1-7.992-7.994 7.988 7.988 0 0 1 7.992-7.996 31.68 31.68 0 0 0 26.576-14.31c3.576-5.168 5.402-11.218 5.402-17.668 0-17.932-14.052-31.976-31.978-31.976-7.946 0-15.488 2.802-21.25 7.9a8.012 8.012 0 0 1-11.274-0.688 7.988 7.988 0 0 1 0.688-11.288c8.682-7.682 19.986-11.914 31.836-11.914 26.452 0 47.966 21.516 47.966 47.964 0 9.706-2.81 18.91-8.134 26.606-8.744 13.324-23.686 21.364-39.832 21.364zM649.494 582.028a8.01 8.01 0 0 1-7.292-4.7 8.008 8.008 0 0 1 3.998-10.586c5.98-2.686 9.696-8.37 9.696-14.772 0-8.806-7.166-15.988-15.988-15.988-4.418 0-7.994-3.576-7.994-7.994s3.576-7.994 7.994-7.994c17.628 0 31.976 14.334 31.976 31.976 0 12.774-7.322 24.014-19.096 29.354a8.222 8.222 0 0 1-3.294 0.704z" fill="#116FFF" p-id="17263"></path><path d="M639.908 535.982c-4.418 0-7.994-3.576-7.994-7.994s3.576-7.994 7.994-7.994c13.224 0 23.982-10.758 23.982-23.982 0-13.226-10.758-23.984-23.982-23.984-1.858 0-3.716 0.296-5.574 0.562-4.292 0.61-8.432-2.396-9.056-6.784a7.996 7.996 0 0 1 6.778-9.048c2.608-0.376 5.246-0.718 7.854-0.718 22.046 0 39.97 17.932 39.97 39.972s-17.924 39.97-39.972 39.97zM543.976 440.05a7.988 7.988 0 0 1-7.994-7.994 7.988 7.988 0 0 1 7.994-7.994c9.698 0 18.346-5.722 22.032-14.59 1.294-3.084 1.952-6.238 1.952-9.392 0-13.224-10.758-23.984-23.982-23.984s-23.982 10.758-23.982 23.984a7.99 7.99 0 0 1-7.994 7.994 7.99 7.99 0 0 1-7.996-7.994c0-22.04 17.924-39.972 39.972-39.972s39.97 17.932 39.97 39.972c0 5.292-1.076 10.524-3.184 15.558-6.168 14.826-20.612 24.412-36.788 24.412zM600.216 663.954c-3.372 0-6.76-0.25-10.164-0.81a7.992 7.992 0 0 1-6.652-9.15c0.688-4.356 4.888-7.37 9.15-6.622 15.162 2.344 30.306-2.496 41.424-13.472 14.88-14.88 18.286-37.458 8.448-56.132-2.108-4.372-4.918-8.276-8.478-11.836-18.658-18.642-49.09-18.564-67.842 0.156-3.124 3.124-8.182 3.124-11.304 0s-3.124-8.182 0-11.304c24.998-24.98 65.578-25.042 90.452-0.156 4.824 4.84 8.682 10.198 11.446 15.926 12.99 24.672 8.448 54.79-11.446 74.698-12.322 12.144-28.31 18.702-45.034 18.702zM615.926 967.676H408.074a7.982 7.982 0 0 1-5.652-2.344l-31.978-31.976a7.988 7.988 0 0 1-2.342-5.652v-111.92a7.988 7.988 0 0 1 7.994-7.994 7.99 7.99 0 0 1 7.996 7.994v108.61l27.292 27.292h201.232l27.292-27.292v-108.61a7.988 7.988 0 0 1 7.994-7.994 7.988 7.988 0 0 1 7.994 7.994v111.92a7.992 7.992 0 0 1-2.342 5.652l-31.976 31.976a7.99 7.99 0 0 1-5.652 2.344z" fill="#116FFF" p-id="17264"></path><path d="M360.108 871.742a7.978 7.978 0 0 1-7.978-7.588 8 8 0 0 1 7.588-8.4l15.99-0.782 287.794-15.208c4.42-0.266 8.166 3.202 8.37 7.59a7.998 7.998 0 0 1-7.588 8.398l-15.988 0.782-287.794 15.208h-0.394zM360.108 919.708a7.98 7.98 0 0 1-7.978-7.588 8 8 0 0 1 7.588-8.4l15.99-0.782 287.794-15.208c4.42-0.14 8.166 3.202 8.37 7.588a8 8 0 0 1-7.588 8.4l-15.988 0.78-287.794 15.208-0.394 0.002zM647.902 823.778H376.096a7.99 7.99 0 0 1-7.994-7.994v-49.558c-80.192-50.152-127.908-135.872-127.908-230.242 0-149.876 121.928-271.806 271.806-271.806 149.876 0 271.804 121.928 271.804 271.806 0 94.372-47.714 180.09-127.908 230.242v49.558a7.988 7.988 0 0 1-7.994 7.994z m-263.812-15.988h255.818v-46.044c0-2.794 1.468-5.386 3.856-6.856 77.68-46.858 124.052-128.69 124.052-218.906 0-141.054-114.762-255.816-255.816-255.816-141.056 0-255.818 114.762-255.818 255.816 0 90.216 46.374 172.048 124.052 218.906a8.06 8.06 0 0 1 3.856 6.856v46.044zM512 999.652c-60.208 0-78.352-34.914-79.1-36.396a7.996 7.996 0 0 1 3.576-10.726c3.952-1.936 8.712-0.39 10.696 3.514 0.624 1.202 15.146 27.622 64.83 27.622 49.76 0 64.234-26.498 64.828-27.636 2.044-3.874 6.838-5.434 10.742-3.436s5.496 6.744 3.53 10.664c-0.752 1.48-18.894 36.394-79.102 36.394zM168.244 543.976H8.36a7.988 7.988 0 0 1-7.994-7.994 7.988 7.988 0 0 1 7.994-7.994h159.884a7.99 7.99 0 0 1 7.996 7.994 7.99 7.99 0 0 1-7.996 7.994zM1015.64 543.976h-159.886a7.988 7.988 0 0 1-7.994-7.994 7.99 7.99 0 0 1 7.994-7.994h159.886a7.99 7.99 0 0 1 7.994 7.994 7.988 7.988 0 0 1-7.994 7.994zM75.826 795.796a7.976 7.976 0 0 1-6.916-3.996 7.996 7.996 0 0 1 2.918-10.93l138.464-79.944c3.81-2.186 8.712-0.906 10.914 2.936a7.996 7.996 0 0 1-2.92 10.93l-138.462 79.942a8.06 8.06 0 0 1-3.998 1.062zM809.708 372.1a7.96 7.96 0 0 1-6.918-3.998 7.986 7.986 0 0 1 2.92-10.922l138.464-79.942c3.824-2.194 8.712-0.914 10.914 2.928a7.988 7.988 0 0 1-2.92 10.922l-138.464 79.942a7.984 7.984 0 0 1-3.996 1.07zM683.876 246.268a7.986 7.986 0 0 1-6.918-11.992l79.944-138.456c2.202-3.834 7.104-5.122 10.914-2.928a7.984 7.984 0 0 1 2.92 10.922l-79.944 138.456a7.96 7.96 0 0 1-6.916 3.998zM512 200.222a7.99 7.99 0 0 1-7.996-7.994V32.342A7.99 7.99 0 0 1 512 24.348a7.99 7.99 0 0 1 7.994 7.994v159.886a7.99 7.99 0 0 1-7.994 7.994zM340.122 246.268a7.956 7.956 0 0 1-6.916-3.998l-79.944-138.456a7.984 7.984 0 0 1 2.92-10.922 7.966 7.966 0 0 1 10.914 2.928l79.944 138.456a7.984 7.984 0 0 1-6.918 11.992zM948.172 795.796a8.068 8.068 0 0 1-3.996-1.062l-138.464-79.942a7.998 7.998 0 0 1-2.92-10.93c2.204-3.842 7.09-5.09 10.914-2.936l138.464 79.944a7.998 7.998 0 0 1 2.92 10.93 7.976 7.976 0 0 1-6.918 3.996zM214.29 372.1a8.008 8.008 0 0 1-3.998-1.07l-138.464-79.942a7.982 7.982 0 0 1-2.918-10.922c2.202-3.834 7.104-5.098 10.914-2.928l138.462 79.942a7.984 7.984 0 0 1 2.92 10.922 7.96 7.96 0 0 1-6.916 3.998z" fill="#116FFF" p-id="17265"></path><path d="M512 656.538a7.99 7.99 0 0 1-7.996-7.994V400.08a7.99 7.99 0 0 1 7.996-7.994 7.99 7.99 0 0 1 7.994 7.994v248.462a7.992 7.992 0 0 1-7.994 7.996z" fill="#116FFF" p-id="17266"></path><path d="M535.982 599.938c-20.688 0-30.712-19.58-31.134-20.408-1.966-3.95-0.374-8.76 3.576-10.726 3.964-1.936 8.712-0.39 10.71 3.53 0.124 0.25 6.184 11.618 16.848 11.618a7.988 7.988 0 0 1 7.994 7.994 7.99 7.99 0 0 1-7.994 7.992z" fill="#116FFF" p-id="17267"></path><path d="M488.016 599.938a7.99 7.99 0 0 1-7.994-7.994 7.988 7.988 0 0 1 7.994-7.994c10.726 0 16.8-11.492 16.862-11.618a7.978 7.978 0 0 1 10.728-3.482 7.968 7.968 0 0 1 3.542 10.68c-0.42 0.828-10.442 20.408-31.132 20.408zM551.97 504.006c-37.942 0-47.966-26.146-47.966-39.972a7.994 7.994 0 1 1 15.99-0.054c0.046 2.538 1.388 24.038 31.976 24.038a7.99 7.99 0 0 1 7.994 7.994 7.99 7.99 0 0 1-7.994 7.994z" fill="#116FFF" p-id="17268"></path><path d="M472.028 504.006a7.99 7.99 0 0 1-7.994-7.994 7.99 7.99 0 0 1 7.994-7.994c31.62 0 31.978-23.008 31.978-23.984a7.99 7.99 0 0 1 7.996-7.994 7.99 7.99 0 0 1 7.994 7.994c-0.002 13.826-10.026 39.972-47.968 39.972z" fill="#116FFF" p-id="17269"></path></svg>