<svg height="512pt" viewBox="-8 0 512 512.00103" width="512pt" xmlns="http://www.w3.org/2000/svg"><path d="m27.65625 499.804688-15.460938-15.460938c-6.007812-6.003906-6.007812-15.742188 0-21.75l274.082032-274.082031c6.003906-6.003907 15.742187-6.003907 21.746094 0l15.464843 15.464843c6.003907 6.003907 6.003907 15.742188 0 21.746094l-274.082031 274.082032c-6.007812 6.007812-15.742188 6.007812-21.75 0zm0 0" fill="#5e8ee1"/><path d="m323.488281 203.976562-15.464843-15.464843c-6.003907-6.003907-15.742188-6.003907-21.746094 0l-4.503906 4.503906 10.957031 10.957031c6.003906 6.007813 6.003906 15.746094 0 21.75l-269.578125 269.578125 4.503906 4.503907c6.007812 6.007812 15.742188 6.007812 21.75 0l274.082031-274.082032c6.003907-6.003906 6.003907-15.742187 0-21.746094zm0 0" fill="#467bff"/><path d="m248.582031 300.632812 74.804688-74.808593c6.0625-6.0625 6.0625-15.886719 0-21.949219l-15.261719-15.261719c-6.0625-6.058593-15.886719-6.058593-21.949219 0l-74.808593 74.808594zm0 0" fill="#aceded"/><path d="m323.386719 203.875-15.261719-15.261719c-6.0625-6.0625-15.886719-6.0625-21.949219 0l-4.402343 4.402344 10.855468 10.859375c6.0625 6.058594 6.0625 15.886719 0 21.949219l-59.425781 59.429687 15.378906 15.378906 74.804688-74.808593c6.0625-6.0625 6.0625-15.886719 0-21.949219zm0 0" fill="#66d6e6"/><path d="m416.398438 124.800781-10.835938 30.058594c-2.570312 7.136719-1.3125 15.09375 3.34375 21.085937l19.589844 25.242188c11.496094 14.808594.539062 36.308594-18.195313 35.710938l-31.9375-1.011719c-7.582031-.242188-14.761719 3.414062-19.023437 9.691406l-17.949219 26.433594c-10.535156 15.507812-34.367187 11.730469-39.589844-6.273438l-8.90625-30.683593c-2.113281-7.285157-7.808593-12.984376-15.09375-15.097657l-30.6875-8.902343c-18.003906-5.226563-21.777343-29.058594-6.269531-39.589844l26.433594-17.949219c6.273437-4.261719 9.933594-11.441406 9.691406-19.027344l-1.015625-31.933593c-.59375-18.738282 20.90625-29.691407 35.714844-18.195313l25.238281 19.589844c5.992188 4.652343 13.949219 5.914062 21.089844 3.339843l30.058594-10.832031c17.636718-6.355469 34.699218 10.707031 28.34375 28.34375zm0 0" fill="#f7ec77"/><g fill="#f7e05d"><path d="m347.605469 235.886719c-7.582031-.242188-14.761719 3.417969-19.023438 9.691406l-17.949219 26.433594c-.898437 1.320312-1.898437 2.492187-2.96875 3.539062 9.265626 8.917969 25.527344 8.535157 33.726563-3.539062l17.949219-26.433594c3.011718-4.433594 7.484375-7.554687 12.523437-8.921875zm0 0"/><path d="m428.496094 201.1875-19.589844-25.242188c-4.652344-5.992187-5.914062-13.949218-3.34375-21.085937l10.835938-30.058594c6.355468-17.636719-10.707032-34.699219-28.34375-28.34375l-9.550782 3.441407c6.980469 5.535156 10.65625 15.125 7.132813 24.902343l-10.832031 30.058594c-2.574219 7.136719-1.3125 15.09375 3.339843 21.085937l19.59375 25.242188c10.050781 12.945312 2.9375 31.011719-11.535156 34.949219l24.09375.765625c18.738281.59375 29.695313-20.90625 18.199219-35.714844zm0 0"/><path d="m427.511719 290.511719 5.902343 11.125c.515626.972656 1.308594 1.773437 2.273438 2.304687l11.046875 6.046875c3.933594 2.152344 3.898437 7.816407-.0625 9.917969l-11.128906 5.90625c-.972657.515625-1.769531 1.304688-2.300781 2.269531l-6.046876 11.050781c-2.15625 3.933594-7.816406 3.894532-9.921874-.066406l-5.902344-11.125c-.515625-.972656-1.304688-1.773437-2.273438-2.300781l-11.046875-6.050781c-3.933593-2.152344-3.898437-7.816406.066407-9.917969l11.125-5.902344c.972656-.515625 1.773437-1.308593 2.300781-2.273437l6.046875-11.046875c2.15625-3.9375 7.820312-3.898438 9.921875.0625zm0 0"/></g><path d="m186.203125 52.445312 9.1875 17.320313c.804687 1.515625 2.035156 2.761719 3.539063 3.582031l17.199218 9.414063c6.121094 3.355469 6.066406 12.171875-.101562 15.445312l-17.320313 9.1875c-1.515625.804688-2.761719 2.035157-3.582031 3.539063l-9.417969 17.199218c-3.351562 6.121094-12.167969 6.066407-15.441406-.101562l-9.191406-17.320312c-.800781-1.515626-2.03125-2.761719-3.535157-3.582032l-17.199218-9.417968c-6.125-3.351563-6.066406-12.167969.101562-15.441407l17.320313-9.191406c1.515625-.800781 2.761719-2.03125 3.582031-3.535156l9.417969-17.199219c3.351562-6.125 12.167969-6.066406 15.441406.101562zm0 0" fill="#f7ec77"/><path d="m216.128906 82.761719-17.199218-9.414063c-1.503907-.824218-2.734376-2.070312-3.535157-3.582031l-9.191406-17.320313c-3.273437-6.167968-12.089844-6.226562-15.441406-.101562l-7.804688 14.257812 1.675781 3.164063c.804688 1.515625 2.035157 2.757813 3.539063 3.582031l17.195313 9.414063c6.125 3.355469 6.070312 12.171875-.097657 15.441406l-17.320312 9.191406c-1.515625.804688-2.761719 2.035157-3.585938 3.535157l-1.609375 2.941406 7.515625 14.160156c3.269531 6.164062 12.085938 6.222656 15.441407.097656l9.414062-17.199218c.824219-1.503907 2.070312-2.730469 3.582031-3.535157l17.320313-9.191406c6.167968-3.269531 6.226562-12.085937.101562-15.441406zm0 0" fill="#f7e05d"/><path d="m437.585938 228.3125c5.304687-10.410156 4.148437-22.613281-3.015626-31.839844l-19.589843-25.242187c-3.054688-3.933594-3.871094-9.078125-2.179688-13.765625l10.832031-30.054688c3.960938-10.992187 1.289063-22.953125-6.972656-31.214844-8.257812-8.261718-20.21875-10.933593-31.210937-6.972656l-3.589844 1.296875c-3.996094 1.4375-6.066406 5.84375-4.628906 9.839844 1.441406 3.996094 5.84375 6.066406 9.839843 4.628906l3.59375-1.296875c5.402344-1.949218 11.058594-.683594 15.121094 3.378906 4.066406 4.0625 5.328125 9.71875 3.378906 15.125l-10.832031 30.058594c-3.484375 9.667969-1.804687 20.292969 4.5 28.410156l19.589844 25.238282c3.523437 4.539062 4.070313 10.308594 1.460937 15.429687-2.609374 5.117188-7.609374 8.050781-13.339843 7.882813l-31.933594-1.011719c-10.277344-.332031-19.855469 4.554687-25.628906 13.058594l-17.953125 26.429687c-3.226563 4.757813-8.542969 7.058594-14.21875 6.160156-5.675782-.898437-10.019532-4.730468-11.621094-10.25l-8.90625-30.6875c-2.863281-9.871093-10.46875-17.472656-20.339844-20.339843l-30.683594-8.902344c-5.519531-1.601563-9.351562-5.945313-10.25-11.621094-.898437-5.675781 1.402344-10.992187 6.15625-14.222656l26.433594-17.949219c8.503906-5.773437 13.386719-15.355468 13.058594-25.628906l-1.015625-31.933594c-.183594-5.746094 2.765625-10.730468 7.886719-13.339844 5.121094-2.609374 10.886718-2.066406 15.425781 1.460938l25.242187 19.589844c8.117188 6.304687 18.742188 7.984375 28.410157 4.5 3.996093-1.441406 6.066406-5.84375 4.625-9.839844-1.4375-3.996094-5.84375-6.066406-9.839844-4.628906-4.6875 1.6875-9.832031.875-13.765625-2.179688l-25.242188-19.589844c-9.226562-7.164062-21.425781-8.320312-31.835937-3.015624-10.414063 5.300781-16.648437 15.851562-16.277344 27.53125l1.015625 31.933593c.15625 4.980469-2.207031 9.621094-6.328125 12.421875l-26.433593 17.949219c-9.664063 6.5625-14.535157 17.808594-12.707032 29.347656 1.828125 11.539063 9.933594 20.730469 21.152344 23.988281l.390625.113282-93.828125 93.828125c-3.003906 3.003906-3.003906 7.871093 0 10.875 1.5 1.5 3.46875 2.253906 5.4375 2.253906 1.964844 0 3.933594-.753906 5.4375-2.253906l48.960938-48.960938 26.335937 26.335938-193.734375 193.734375c-3 2.996094-7.875 2.996094-10.875 0l-15.460938-15.464844c-3-2.996094-3-7.875 0-10.875l123.242188-123.242188c3.003906-3.003906 3.003906-7.871093 0-10.875-3.003906-3.003906-7.871094-3.003906-10.875 0l-123.242188 123.242188c-4.359374 4.359375-6.757812 10.152344-6.757812 16.3125 0 6.164062 2.398438 11.957031 6.757812 16.3125l15.460938 15.464844c4.359375 4.355468 10.152344 6.753906 16.3125 6.753906 6.164062 0 11.953125-2.398438 16.3125-6.753906l199.175781-199.175782 39.898438-39.902343.496093 1.71875c3.257813 11.21875 12.449219 19.324219 23.988282 21.152343 1.605468.253907 3.207031.378907 4.789062.378907 9.792969 0 18.910156-4.765625 24.5625-13.085938l17.949219-26.433593c2.796875-4.121094 7.429687-6.492188 12.417969-6.324219l31.933594 1.011719c11.703124.371093 22.226562-5.863282 27.53125-16.273438zm-189.003907 61.445312-26.335937-26.335937 39.972656-39.976563 13.4375 3.898438c4.785156 1.390625 8.46875 5.074219 9.855469 9.855469l3.515625 12.113281zm0 0"/><path d="m450.425781 303.242188-10.507812-5.753907-5.613281-10.582031c-2.300782-4.335938-6.777344-7.046875-11.683594-7.078125-.03125 0-.058594 0-.089844 0-4.871094 0-9.34375 2.648437-11.683594 6.925781l-5.753906 10.507813-10.582031 5.617187c-4.335938 2.300782-7.046875 6.777344-7.078125 11.683594s2.621094 9.417969 6.925781 11.773438l10.507813 5.753906 5.617187 10.582031c2.296875 4.335937 6.773437 7.046875 11.683594 7.078125h.085937c4.871094 0 9.34375-2.648438 11.6875-6.925781l5.75-10.507813 10.582032-5.617187c4.335937-2.300781 7.046874-6.777344 7.078124-11.683594.035157-4.90625-2.621093-9.417969-6.925781-11.773437zm-18.488281 15.777343c-2.304688 1.222657-4.1875 3.082031-5.441406 5.371094l-4.214844 7.703125-4.117188-7.757812c-1.222656-2.308594-3.082031-4.191407-5.371093-5.441407l-7.703125-4.21875 7.757812-4.117187c2.304688-1.222656 4.1875-3.082032 5.441406-5.371094l4.21875-7.703125 4.113282 7.757813c1.222656 2.304687 3.082031 4.1875 5.371094 5.441406l7.707031 4.214844zm0 0"/><path d="m136.648438 104.457031 17.199218 9.414063c.1875.105468.335938.257812.4375.445312l9.1875 17.320313c2.84375 5.355469 8.375 8.703125 14.433594 8.742187h.109375c6.019531 0 11.542969-3.269531 14.4375-8.554687l9.417969-17.199219c.101562-.1875.253906-.339844.441406-.4375l17.320312-9.191406c5.355469-2.839844 8.703126-8.371094 8.746094-14.433594.039063-6.058594-3.242187-11.632812-8.558594-14.546875l-17.199218-9.414063c-.1875-.101562-.335938-.253906-.4375-.441406l-9.191406-17.320312c-2.839844-5.355469-8.371094-8.707032-14.429688-8.746094-.039062 0-.074219 0-.109375 0-6.019531 0-11.542969 3.273438-14.4375 8.558594l-9.414063 17.199218c-.105468.1875-.257812.335938-.441406.4375l-17.324218 9.1875c-5.355469 2.84375-8.703126 8.375-8.742188 14.433594-.039062 6.0625 3.238281 11.636719 8.554688 14.546875zm7.398437-15.394531 17.320313-9.191406c2.847656-1.511719 5.175781-3.804688 6.722656-6.636719l9.414062-17.199219c.085938-.152344.308594-.5625.949219-.5625h.007813c.644531.003906.867187.417969.949218.578125l9.191406 17.320313c1.511719 2.851562 3.804688 5.175781 6.636719 6.722656l17.199219 9.414062c.152344.085938.566406.3125.5625.957032-.007812.644531-.421875.863281-.578125.949218l-17.320313 9.1875c-2.851562 1.515626-5.175781 3.808594-6.722656 6.636719l-9.414062 17.199219c-.085938.15625-.300782.582031-.957032.5625-.644531-.003906-.863281-.417969-.949218-.574219l-9.1875-17.320312c-1.515625-2.851563-3.808594-5.175781-6.636719-6.722657l-17.199219-9.417968c-.15625-.085938-.566406-.308594-.5625-.953125.003906-.648438.417969-.867188.574219-.949219zm0 0"/><path d="m303.992188 358.683594h-8.199219v-8.199219c0-4.246094-3.441407-7.6875-7.6875-7.6875-4.25 0-7.691407 3.441406-7.691407 7.6875v8.199219h-8.199218c-4.246094 0-7.6875 3.441406-7.6875 7.6875s3.441406 7.691406 7.6875 7.691406h8.199218v8.199219c0 4.246093 3.441407 7.6875 7.691407 7.6875 4.246093 0 7.6875-3.441407 7.6875-7.6875v-8.199219h8.199219c4.246093 0 7.6875-3.445312 7.6875-7.691406s-3.441407-7.6875-7.6875-7.6875zm0 0"/><path d="m488.832031 148.105469h-8.199219v-8.199219c0-4.246094-3.441406-7.6875-7.6875-7.6875-4.246093 0-7.691406 3.441406-7.691406 7.6875v8.199219h-8.199218c-4.246094 0-7.6875 3.441406-7.6875 7.691406 0 4.246094 3.441406 7.6875 7.6875 7.6875h8.199218v8.199219c0 4.246094 3.445313 7.6875 7.691406 7.6875 4.246094 0 7.6875-3.441406 7.6875-7.6875v-8.199219h8.199219c4.246094 0 7.691407-3.441406 7.691407-7.6875 0-4.25-3.445313-7.691406-7.691407-7.691406zm0 0"/><path d="m331.421875 31.265625h8.199219v8.199219c0 4.246094 3.441406 7.691406 7.6875 7.691406s7.691406-3.445312 7.691406-7.691406v-8.199219h8.195312c4.246094 0 7.691407-3.441406 7.691407-7.6875s-3.445313-7.691406-7.691407-7.691406h-8.195312v-8.195313c0-4.25-3.445312-7.691406-7.691406-7.691406s-7.6875 3.441406-7.6875 7.691406v8.195313h-8.199219c-4.25 0-7.691406 3.445312-7.691406 7.691406s3.441406 7.6875 7.691406 7.6875zm0 0"/></svg>