<?xml version="1.0" standalone="no"?><!DOCTYPE svg PUBLIC "-//W3C//DTD SVG 1.1//EN" "http://www.w3.org/Graphics/SVG/1.1/DTD/svg11.dtd"><svg t="1562737895695" class="icon" viewBox="0 0 1024 1024" version="1.1" xmlns="http://www.w3.org/2000/svg" p-id="2601" xmlns:xlink="http://www.w3.org/1999/xlink" width="200" height="200"><defs><style type="text/css"></style></defs><path d="M626.5856 977.92H399.36a35.84 35.84 0 0 1-35.84-35.84v-139.7248a271.8208 271.8208 0 1 1 298.8544 0V942.08a35.84 35.84 0 0 1-35.7888 35.84zM435.2 906.24h155.4944v-124.1088a35.84 35.84 0 0 1 18.5856-31.3856 200.0896 200.0896 0 1 0-192.6656 0 35.84 35.84 0 0 1 18.5856 31.3856zM511.0784 217.4464a35.84 35.84 0 0 1-35.84-35.84V74.496a35.84 35.84 0 1 1 71.68 0v107.1104a35.84 35.84 0 0 1-35.84 35.84zM255.5392 323.2768a35.84 35.84 0 0 1-25.344-10.24L154.4704 237.056a35.84 35.84 0 1 1 50.6368-50.688l75.776 75.7248a35.84 35.84 0 0 1-25.6 61.44zM149.7088 578.816H42.5472a35.84 35.84 0 0 1 0-71.68h107.1616a35.84 35.84 0 1 1 0 71.68zM981.4528 578.816h-109.056a35.84 35.84 0 0 1 0-71.68h109.056a35.84 35.84 0 0 1 0 71.68zM766.5664 323.328a35.84 35.84 0 0 1-25.344-61.184l75.776-75.776a35.84 35.84 0 0 1 50.688 50.688l-75.776 75.776a35.84 35.84 0 0 1-25.344 10.496z" fill="#231F20" p-id="2602"></path></svg>